# xmcd
#
# Track frame offsets:
#	150
#	29236
#	70584
#	81755
#	108031
#	143378
#	173110
#	213537
#	255140
#	292811
#	321138
#
# Disc length: 4669 seconds
#
# Revision: 1
# Processed by: cddbd v1.5.2PL0 Copyright (c) Steve Scherf et al.
# Submitted via: audiograbber 1.83.01
#
DISCID=8c123b0b
DTITLE=Grateful Dead - 78-12-13 Curtis Hixon Convention Hall, Tampa FL
DYEAR=1900
DGENRE=
TTITLE0=Passenger
TTITLE1=They Love Each Other
TTITLE2=Mama Tried
TTITLE3=Mexicali Blues
TTITLE4=Candyman
TTITLE5=El Paso
TTITLE6=Tennessee Jed
TTITLE7=It's All Over Now
TTITLE8=Loser
TTITLE9=Jack Straw
TTITLE10=Deal
EXTD=
EXTT0=
EXTT1=
EXTT2=
EXTT3=
EXTT4=
EXTT5=
EXTT6=
EXTT7=
EXTT8=
EXTT9=
EXTT10=
PLAYORDER=
